<svg class="joy" xmlns="http://www.w3.org/2000/svg" xmlns:xlink="http://www.w3.org/1999/xlink" version="1.1" x="0px" y="0px" viewBox="23.8 -2.6 55.1 74.1"  enable-background="new 0 0 100 100" xml:space="preserve">
	<g>
		<g>
			<path d="M58.8,5.2c0,4.2-3.4,7.5-7.5,7.5c-4.2,0-7.5-3.4-7.5-7.5c0-4.2,3.4-7.5,7.5-7.5C55.5-2.3,58.8,1.1,58.8,5.2z"/>
			<g>
				<path d="M77.7,3.8L60.1,21.5v46.2c0,2.1-1.7,3.8-3.8,3.8s-3.8-1.7-3.8-3.8V42.6c0-0.7-0.6-1.3-1.3-1.3c-0.7,0-1.3,0.6-1.3,1.3
					v25.1c0,2.1-1.7,3.8-3.8,3.8c-2.1,0-3.8-1.7-3.8-3.8V21.5L24.9,3.8c-1.5-1.5-1.5-3.9,0-5.3c1.5-1.5,3.9-1.5,5.3,0
					c0,0,9.1,9.3,12.3,12.3c1.8,1.7,5,4.4,8.8,4.4c3.8,0,7-2.8,8.8-4.4c3.2-3,12.3-12.3,12.3-12.3c1.5-1.5,3.9-1.5,5.3,0
					C79.2,0,79.2,2.4,77.7,3.8z"/>
			</g>
		</g>
	</g>
</svg>
