<svg class="button" xmlns="http://www.w3.org/2000/svg" xmlns:xlink="http://www.w3.org/1999/xlink" version="1.1" x="0px" y="0px" viewBox="0 0 100 125" enable-background="new 0 0 100 100" xml:space="preserve"><path d="M49.5,95c24.9,0,45-20.2,45-45S74.4,5,49.5,5c-24.8,0-45,20.2-45,45S24.7,95,49.5,95z M49.5,14.9  c19.3,0,35.1,15.7,35.1,35.1S68.8,85.1,49.5,85.1S14.4,69.3,14.4,50S30.3,14.9,49.5,14.9z M49.5,82.8c18.1,0,32.8-14.7,32.8-32.8  S67.6,17.2,49.5,17.2S16.7,31.9,16.7,50S31.4,82.8,49.5,82.8z M60.4,32.2c4.1,0,7.3,3.3,7.3,7.3c0,4.1-3.3,7.3-7.3,7.3  c-4.1,0-7.3-3.3-7.3-7.3C53.1,35.5,56.3,32.2,60.4,32.2z M60.4,53.2c4.1,0,7.3,3.3,7.3,7.3c0,4.1-3.3,7.3-7.3,7.3  c-4.1,0-7.3-3.3-7.3-7.3C53.1,56.4,56.3,53.2,60.4,53.2z M38.7,32.2c4.1,0,7.3,3.3,7.3,7.3c0,4.1-3.3,7.3-7.3,7.3  c-4.1,0-7.3-3.3-7.3-7.3C31.4,35.5,34.6,32.2,38.7,32.2z M38.7,53.2c4.1,0,7.3,3.3,7.3,7.3c0,4.1-3.3,7.3-7.3,7.3  c-4.1,0-7.3-3.3-7.3-7.3C31.4,56.4,34.6,53.2,38.7,53.2z"/></svg>
